<?xml version="1.0" encoding="UTF-8" standalone="no"?>
<!-- Created with Inkscape (http://www.inkscape.org/) -->

<svg
   xmlns:osb="http://www.openswatchbook.org/uri/2009/osb"
   xmlns:dc="http://purl.org/dc/elements/1.1/"
   xmlns:cc="http://creativecommons.org/ns#"
   xmlns:rdf="http://www.w3.org/1999/02/22-rdf-syntax-ns#"
   xmlns:svg="http://www.w3.org/2000/svg"
   xmlns="http://www.w3.org/2000/svg"
   xmlns:sodipodi="http://sodipodi.sourceforge.net/DTD/sodipodi-0.dtd"
   xmlns:inkscape="http://www.inkscape.org/namespaces/inkscape"
   width="134.01421mm"
   height="89.507103mm"
   viewBox="0 0 134.01421 89.507103"
   version="1.1"
   id="svg8"
   inkscape:version="0.92.3 (2405546, 2018-03-11)"
   sodipodi:docname="logo-lightback.svg"
   inkscape:export-filename="/mnt/Git-Projects/JeroenED/libpairtwo/res/logo-lightback.svg.png"
   inkscape:export-xdpi="95"
   inkscape:export-ydpi="95">
  <defs
     id="defs2">
    <linearGradient
       id="linearGradient5143"
       osb:paint="solid">
      <stop
         style="stop-color:#000000;stop-opacity:1;"
         offset="0"
         id="stop5141" />
    </linearGradient>
  </defs>
  <sodipodi:namedview
     id="base"
     pagecolor="#ffffff"
     bordercolor="#666666"
     borderopacity="1.0"
     inkscape:pageopacity="0.0"
     inkscape:pageshadow="2"
     inkscape:zoom="1.9566162"
     inkscape:cx="445.41653"
     inkscape:cy="38.65648"
     inkscape:document-units="mm"
     inkscape:current-layer="svg8"
     showgrid="false"
     inkscape:window-width="1920"
     inkscape:window-height="1027"
     inkscape:window-x="1920"
     inkscape:window-y="0"
     inkscape:window-maximized="1"
     fit-margin-top="0"
     fit-margin-left="0"
     fit-margin-right="0"
     fit-margin-bottom="0" />
  <metadata
     id="metadata5">
    <rdf:RDF>
      <cc:Work
         rdf:about="">
        <dc:format>image/svg+xml</dc:format>
        <dc:type
           rdf:resource="http://purl.org/dc/dcmitype/StillImage" />
        <dc:title />
      </cc:Work>
    </rdf:RDF>
  </metadata>
  <g
     inkscape:label="Layer 1"
     inkscape:groupmode="layer"
     id="layer1"
     transform="translate(-50.708742,-23.690311)">
    <rect
       style="fill:#ffffff;fill-opacity:1;stroke:#000000;stroke-width:0.49290088;stroke-miterlimit:4;stroke-dasharray:none;stroke-opacity:1"
       id="rect5139-2-9"
       width="44.507099"
       height="44.507099"
       x="95.462296"
       y="68.443863" />
    <rect
       style="fill:#ffffff;fill-opacity:1;stroke:#000000;stroke-width:0.49290088;stroke-miterlimit:4;stroke-dasharray:none;stroke-opacity:1"
       id="rect5139-2-99"
       width="44.507099"
       height="44.507099"
       x="139.96939"
       y="68.443863" />
    <rect
       style="fill:#ffffff;fill-opacity:1;stroke:#000000;stroke-width:0.49290088;stroke-miterlimit:4;stroke-dasharray:none;stroke-opacity:1"
       id="rect5139-2-4"
       width="44.507099"
       height="44.507099"
       x="50.955193"
       y="68.443863" />
    <rect
       style="fill:#ffffff;fill-opacity:1;stroke:#000000;stroke-width:0.49290088;stroke-miterlimit:4;stroke-dasharray:none;stroke-opacity:1"
       id="rect5139-2"
       width="44.507099"
       height="44.507099"
       x="50.955193"
       y="23.936762" />
    <rect
       style="fill:#ffffff;fill-opacity:1;stroke:#000000;stroke-width:0.49290088;stroke-miterlimit:4;stroke-dasharray:none;stroke-opacity:1"
       id="rect5139-0"
       width="44.507099"
       height="44.507099"
       x="139.96939"
       y="23.936762" />
    <rect
       style="fill:#ffffff;fill-opacity:1;stroke:#000000;stroke-width:0.49290088;stroke-miterlimit:4;stroke-dasharray:none;stroke-opacity:1"
       id="rect5139"
       width="44.507099"
       height="44.507099"
       x="95.462296"
       y="23.936762" />
  </g>
  <g
     inkscape:groupmode="layer"
     id="layer2"
     inkscape:label="Layer 2"
     transform="translate(-50.708742,-23.690311)">
    <path
       d="m 71.974868,30.15884 h 1.091406 v 1.488281 q 1.165821,0.09922 1.686719,0.09922 h 0.595313 v 1.091406 h -0.09922 q -0.347266,0 -2.083594,0.09922 v 2.480469 q 2.778125,1.165821 2.778125,3.869532 v 0.79375 q 0,0.892968 -0.297656,2.282031 4.415234,-3.671094 7.540625,-3.671094 h 0.396875 q 3.869531,0 5.159375,4.067969 0.198437,0.471289 0.198437,1.190625 0,2.257226 -2.877344,5.754687 -2.083593,2.703711 -2.083593,4.167188 -0.198438,1.761132 -0.198438,2.877343 0.09922,1.785938 0.297657,2.877344 0,1.190625 -5.853907,2.38125 -1.612304,0.297656 -3.671093,0.297656 h -4.266407 q -5.432226,0 -9.227343,-2.182812 L 60.862367,59.72603 q 0.297657,-2.554883 0.297657,-3.175 0,-3.844727 -0.992188,-4.861719 -0.992187,-1.661914 -3.472656,-4.960937 -0.694531,-1.612305 -0.694531,-2.778125 0,-3.795117 4.266406,-5.159375 0.669726,-0.09922 1.091406,-0.09922 h 0.396875 q 3.100586,0 7.540625,3.671094 -0.297656,-1.389063 -0.396875,-2.678906 0,-2.579688 2.182812,-3.96875 0.79375,-0.347266 0.79375,-0.496094 v -2.282032 q -1.835546,-0.09922 -2.282031,-0.09922 l -0.09922,-0.198438 v -0.694531 q 0.02481,-0.198437 0.198438,-0.198437 h 0.694531 q 0.496094,0 1.488281,-0.09922 0,-0.496094 0.09922,-1.488281 z m -1.686719,9.525001 q 0,1.835546 2.083594,7.540624 h 0.198438 q 2.083593,-5.829101 2.083593,-7.441406 -0.396875,-3.075781 -2.182812,-3.075781 -1.810742,0 -2.182813,2.976563 z m -12.898437,4.464843 q 0,1.761133 3.472656,5.953125 0,0.272852 1.091407,1.785938 5.655468,-1.289844 9.624218,-1.289844 v -0.09922 q 0,-2.926953 -2.182812,-5.953125 -4.067969,-4.464843 -7.9375,-4.464843 h -0.09922 q -3.075781,0 -3.96875,3.274218 z m 15.875,6.35 q 0.198437,0.09922 0.297656,0.09922 3.59668,0 9.425781,1.289844 2.058789,-3.150196 4.167188,-6.052344 0.396875,-1.141016 0.396875,-1.984375 0,-2.75332 -3.075781,-3.671094 -0.372071,-0.09922 -0.892969,-0.09922 h -0.09922 q -4.291211,0 -8.334375,5.060156 -1.488281,2.033984 -1.885156,5.357812 z M 62.35065,53.276809 q 0,2.480469 0.297656,2.480469 4.936133,-1.488281 9.425781,-1.488281 h 0.992187 q 4.092774,0 9.326563,1.488281 0.198437,-1.562696 0.198437,-2.480469 -4.688086,-1.289844 -10.021093,-1.289844 h -0.198438 q -5.357812,0 -10.021093,1.289844 z m 0.09922,4.663281 v 0.595313 q 4.960938,-1.785938 10.021094,-1.785938 5.010547,0 10.021094,1.785938 v -0.09922 q 0,-1.289844 -0.396875,-1.289844 -4.737696,-1.488281 -9.028907,-1.488281 h -0.892968 q -4.911328,0 -9.624219,1.5875 z m 0.992188,1.686719 v 0.198437 q 3.224609,1.091407 6.746875,1.091407 h 4.365625 q 3.770312,0 6.945312,-1.091407 v -0.198437 q -4.266406,-1.488281 -9.128125,-1.488281 -4.613672,0 -8.929687,1.488281 z"
       style="stroke-width:0.26458332"
       id="path5110"
       inkscape:connector-curvature="0" />
    <path
       d="m 151.48738,30.259904 q 2.35645,0.09922 3.49746,0.09922 0.62012,0 0.62012,1.860352 v 0.545703 l 0.17363,-0.09922 h 2.50528 v -1.339454 q 0,-0.967383 0.99218,-0.967383 l 1.41387,-0.09922 q 2.72852,0.09922 4.01836,0.09922 0.71934,0.04961 0.71934,0.694532 v 1.612304 h 2.50527 l 0.17363,0.09922 v -0.620117 q 0,-1.463477 0.44649,-1.785938 0.5457,0 1.6123,-0.09922 2.18281,0.09922 3.47266,0.09922 0.5457,0 0.5457,0.892969 0.0744,0.347266 0.0744,1.5875 v 3.125391 q 0,1.190625 -1.0666,1.612304 0,0.148828 -2.85254,2.232422 v 11.53418 q 3.22461,3.398242 3.29903,3.745507 0.0992,0.967383 0.0992,1.785938 v 0.967383 q 1.95957,0 1.95957,0.719336 v 2.678906 q 0,1.041797 -0.44649,1.16582 h -24.65586 q -2.48047,0 -2.48047,-0.446484 l -0.0992,-0.545703 V 58.38842 q 0.22325,-0.446484 0.71934,-0.446484 h 1.24024 v -1.959571 q 0,-1.240234 0.62011,-1.711523 l 2.77813,-2.926953 V 39.908927 q -0.0496,-0.148828 -3.84473,-3.050977 l -0.0744,-0.892968 V 31.77299 q 0,-1.413868 0.69453,-1.413868 0.22324,0 1.33945,-0.09922 z m -0.5209,1.513086 v 3.943945 H 172.745 V 31.77299 h -3.02617 l -0.0992,0.446484 v 1.265039 q 0,0.694531 -0.89297,0.694531 h -4.01836 q -0.79375,0 -0.79375,-1.339453 V 31.77299 h -4.11758 v 1.438671 q 0,0.669727 -0.44648,0.967383 h -4.53926 q -0.71934,0 -0.71934,-0.79375 V 31.77299 Z m 1.51309,5.457031 v 0.07441 l 1.88515,1.438672 0.17364,-0.09922 h 5.08496 q 0.0992,0 0.0992,0.09922 0.0744,0 0.0744,-0.09922 l 0.44649,0.09922 h 8.85527 q 0.47129,0 2.1332,-1.513086 l -0.17363,0.07441 h -0.0992 q -0.0744,0 -0.0744,-0.07441 -0.0992,0 -0.0992,0.07441 l -0.44649,-0.07441 h -16.9664 l -0.44649,0.07441 v -0.07441 l -0.17363,0.07441 h -0.0992 z m 2.40605,3.026172 v 10.442773 q 0.0248,0.198437 0.17364,0.198437 h 13.59296 q 0.17364,0 0.17364,-0.198437 V 40.256193 Z m -2.40605,14.213085 v 0.07441 l 0.17363,-0.07441 h 18.47949 q 0,-0.09922 -1.86035,-2.058789 h -14.8332 z m -0.89297,1.513086 -0.0992,0.173633 v 1.612305 q 0.0248,0.173633 0.19844,0.173633 h 20.33984 q 0.19844,0 0.19844,-0.173633 v -1.612305 l -0.0992,-0.173633 -0.17363,0.07441 h -20.19102 z m -2.05879,3.472656 v 1.438672 h 24.65586 V 59.45502 Z"
       style="stroke-width:0.26458332"
       id="path5114"
       inkscape:connector-curvature="0" />
    <path
       d="m 117.83845,31.273817 h 0.0992 q 2.18281,0.471289 2.18281,2.083594 v 0.396875 q 0,0.942578 -1.19063,1.885156 0.29766,2.158008 1.78594,10.417969 h 0.0992 q 3.175,-9.128125 3.175,-9.425781 -0.89297,-0.694532 -0.89297,-1.389063 v -0.595312 q 0,-1.5875 2.18281,-2.083594 2.28203,0.446484 2.28203,2.182812 v 0.297657 q 0,1.190625 -1.48828,1.984375 0.4961,8.979296 0.59532,9.822656 h 0.0992 l 3.57188,-7.639844 q -0.69453,-1.116211 -0.69453,-1.686719 0.34726,-2.282031 2.28203,-2.282031 2.28203,0.37207 2.28203,2.083594 v 0.297656 q 0,1.513086 -1.98437,2.182813 -1.24024,11.608593 -1.68672,11.608593 -2.6541,2.926953 -2.87735,4.266406 -0.49609,0.892969 -0.49609,1.190625 1.19062,2.505274 1.19062,3.075781 v 0.09922 q -2.05878,1.984375 -8.13593,1.984375 h -5.85391 q -3.99355,0 -6.84609,-1.785937 l -0.0992,-0.198438 v -0.09922 q 0,-0.595312 1.19062,-3.075781 -1.04179,-2.926953 -1.88515,-3.671093 -1.88516,-2.108399 -1.88516,-2.877344 l -1.38903,-10.616406 q -1.21543,0 -1.88515,-1.785938 v -0.595312 q 0,-1.711524 2.28202,-2.083594 2.28203,0.396875 2.28203,2.282031 0,0.570508 -0.69453,1.686719 l 3.57188,7.639844 h 0.0992 q 0.19843,-2.629297 0.59531,-9.822656 -1.48828,-0.79375 -1.48828,-1.984375 v -0.496094 q 0,-1.314649 2.08359,-1.984375 h 0.0992 q 2.28203,0.42168 2.28203,2.083594 v 0.595312 q 0,0.545703 -0.89297,1.488281 v 0.09922 q 3.175,9.15293 3.175,9.326562 h 0.0992 q 1.786,-10.194727 1.786,-10.616407 -1.19063,-0.719336 -1.19063,-1.785937 v -0.396875 q 0,-1.661914 2.18282,-2.083594 z"
       style="stroke-width:0.26458332"
       id="path5112"
       inkscape:connector-curvature="0" />
    <path
       d="m 72.152432,75.06642 q 2.133203,0 2.678906,2.778125 -0.09922,1.041797 -0.892968,2.083594 6.647656,3.596681 6.647656,8.929691 0,2.72851 -2.480469,4.2664 l 1.5875,4.06797 q -1.190625,1.48828 -3.571875,2.08359 -0.818555,0.19844 -2.38125,0.39688 v 0.0992 q 1.463477,0.89297 2.182813,0.89297 h 0.892968 q 0.396875,0 2.678907,-0.39688 2.678906,0 9.524999,3.17501 v 0.0992 l -3.373437,3.07578 h -0.09922 q -2.108398,-1.88515 -6.151562,-1.88515 -1.95957,0.0992 -2.579688,0.0992 -2.802929,0 -4.861718,-1.0914 h -0.09922 q -0.917773,1.19062 -8.73125,1.19062 -1.513086,0.19844 -3.472656,1.5875 h -0.09922 l -2.579687,-2.87734 q 2.282031,-2.20762 5.457031,-3.27423 0.570508,-0.19844 1.984375,-0.39687 0.719336,0 2.778125,0.89296 l 0.595312,0.0992 q 0.818555,0 2.579688,-1.19062 v -0.0992 q -1.885156,0 -4.7625,-1.38906 -0.992188,-0.91778 -1.091406,-1.19063 0.09922,-0.49609 1.5875,-3.96875 -2.579688,-1.33945 -2.579688,-4.46484 0,-4.96094 6.449219,-8.632032 l 0.198437,-0.09922 q -0.818554,-1.066602 -0.892968,-2.083594 0,-1.95957 2.182812,-2.678906 0.124023,-0.09922 0.694531,-0.09922 z m -0.694531,9.12813 v 1.5875 h -1.091406 q -0.768946,0 -0.992188,0.49609 v 0.0992 q 0,0.69453 0.694531,0.69453 h 1.190625 q 0.198438,0.0248 0.198438,0.19844 v 1.48828 q 0.173633,0.39687 0.694531,0.39687 0.446485,-0.19844 0.496094,-0.39687 v -1.48828 q 0.02481,-0.19844 0.198437,-0.19844 h 1.190625 q 0.694532,0 0.694532,-0.69453 v -0.0992 q -0.223243,-0.49609 -0.992188,-0.49609 h -1.091406 v -1.38907 q 0,-0.59531 -0.595313,-0.59531 h -0.198437 q -0.148828,0 -0.396875,0.39688 z"
       style="stroke-width:0.26458332"
       id="path5116"
       inkscape:connector-curvature="0" />
    <path
       d="m 162.45721,74.461215 h 0.47129 q 3.05098,0 4.48965,3.571875 l 0.0744,1.066601 q 0,1.041797 -0.62011,2.282031 3.27422,1.984375 3.27422,5.432225 0,2.43086 -1.51309,4.86172 4.39043,3.07578 5.87871,7.912696 0.37207,1.314637 0.37207,2.306827 v 0.89297 q 0,2.05879 -0.99219,3.67109 -0.5457,0.14883 -0.91777,0.14883 h -20.6375 q -1.36426,0 -1.36426,-0.76894 -0.62012,-1.66192 -0.62012,-3.42305 v -0.0744 q 0,-5.829103 6.17637,-10.666013 -1.53789,-2.15801 -1.53789,-4.26641 v -0.29765 q 0,-3.27422 3.27422,-5.729885 v -0.07441 q -0.44648,-0.967382 -0.44648,-1.885156 v -0.768959 q 0,-2.827734 3.49746,-4.043164 0.71933,-0.148828 1.14101,-0.148828 z"
       style="stroke-width:0.26458332"
       id="path5120"
       inkscape:connector-curvature="0" />
    <path
       d="m 115.59988,74.679438 h 0.29766 q 0.32246,0 1.98438,3.770313 1.48828,-0.09922 2.08359,-0.09922 9.32656,0 12.50156,16.271872 0.69453,3.72071 1.38906,11.410187 -0.14882,0.59531 -0.69453,0.59531 h -22.72109 q -0.37207,0 -0.49609,-1.48828 0,-2.40606 2.97656,-5.754717 3.86953,-4.31601 3.86953,-7.73906 v -0.0992 q -1.48828,0.96739 -3.86953,1.78594 -1.83555,1.16582 -4.06797,4.56406 -1.16582,1.98438 -2.38125,1.98438 -1.48828,-0.59532 -1.48828,-1.38907 v -0.39687 l -0.4961,0.0992 q -2.6293,0 -3.17501,-3.27422 0,-2.48047 3.47267,-7.04453 0.64492,-1.0418 0.79375,-1.68672 -0.19844,-0.39687 -0.19844,-1.09141 v -0.29765 q 0,-2.20762 2.77813,-4.663285 v -4.365625 q 0,-0.79375 0.69453,-0.79375 0.17363,0 4.36562,2.38125 1.51309,-1.934765 2.38125,-2.678905 z m -9.0289,10.318755 q 0,0.29765 0.19844,1.19062 0,1.11621 -3.27422,5.75469 -0.91778,1.5875 -0.99219,3.07578 0,1.36426 1.78594,1.98437 h 0.0992 q 0.81855,0 1.88515,-1.0914 0.17363,-0.0992 0.39688,-0.0992 0.49609,0 0.49609,0.59531 0,0.27285 -0.99219,1.68672 v 0.29766 q 0.32246,0.19843 0.59532,0.19843 1.16582,-1.19062 3.175,-4.2664 2.60449,-2.57969 3.86953,-2.57969 3.15019,-1.26504 4.36562,-3.27422 0.39688,-0.94258 0.4961,-2.6789 0.39687,-0.29766 0.59531,-0.29766 0.44648,0 0.59531,0.89297 0,2.23242 -1.88516,4.2664 v 1.19063 q 0,4.01836 -5.35781,9.723447 -1.38906,2.13321 -1.38906,3.0758 v 0.89297 l 0.19844,-0.0992 h 21.13359 q -0.79375,-9.028937 -1.68672,-12.600807 -3.07578,-13.295316 -11.1125,-13.295316 -2.00918,0.198437 -2.48047,0.198437 -0.79375,-1.141015 -1.5875,-3.274218 h -0.0992 q -2.08359,2.38125 -2.48046,2.480468 -5.10977,2.406055 -5.35782,3.373439 -1.19062,1.16582 -1.19062,2.67891 z m 2.77812,-8.433599 v 2.976563 q 2.6541,-1.364258 2.67891,-1.488281 z m -0.29765,6.647659 h 0.19843 q 0.39688,0.14883 0.39688,0.69453 -0.42168,1.98437 -1.38906,1.98437 -0.29766,-0.37207 -0.29766,-0.69453 0,-1.16582 1.09141,-1.98437 z m -4.36563,10.6164 q 0.39688,0.0496 0.39688,0.69453 0,1.16583 -1.09141,1.98438 h -0.19844 q -0.24804,0 -0.39687,-0.69453 0.47129,-1.98438 1.28984,-1.98438 z"
       style="stroke-width:0.26458332"
       id="path5118"
       inkscape:connector-curvature="0" />
  </g>
</svg>
