<?xml version="1.0" encoding="UTF-8" standalone="no"?>
<!-- Created with Inkscape (http://www.inkscape.org/) -->

<svg
    xmlns:osb="http://www.openswatchbook.org/uri/2009/osb"
    xmlns:dc="http://purl.org/dc/elements/1.1/"
    xmlns:cc="http://creativecommons.org/ns#"
    xmlns:rdf="http://www.w3.org/1999/02/22-rdf-syntax-ns#"
    xmlns:xlink="http://www.w3.org/1999/xlink"
    xmlns:sodipodi="http://sodipodi.sourceforge.net/DTD/sodipodi-0.dtd"
    xmlns:inkscape="http://www.inkscape.org/namespaces/inkscape"
    xmlns="http://www.w3.org/2000/svg"
    width="134.01421mm"
    height="89.507103mm"
    viewBox="0 0 134.01421 89.507103"
    version="1.1"
    id="svg8"
    inkscape:version="0.92.3 (2405546, 2018-03-11)"
    sodipodi:docname="logo-lightback.svg"
    inkscape:export-filename="/mnt/Git-Projects/JeroenED/libpairtwo/res/logo-lightback.svg.png"
    inkscape:export-xdpi="95"
    inkscape:export-ydpi="95">
    <defs
        id="defs2">
        <linearGradient
            id="linearGradient5143"
            osb:paint="solid">
            <stop
                style="stop-color:#000000;stop-opacity:1;"
                offset="0"
                id="stop5141"/>
        </linearGradient>
    </defs>
    <sodipodi:namedview
        id="base"
        pagecolor="#ffffff"
        bordercolor="#666666"
        borderopacity="1.0"
        inkscape:pageopacity="0.0"
        inkscape:pageshadow="2"
        inkscape:zoom="0.9783081"
        inkscape:cx="505.71184"
        inkscape:cy="-2.9639322"
        inkscape:document-units="mm"
        inkscape:current-layer="layer2"
        showgrid="false"
        inkscape:window-width="1920"
        inkscape:window-height="1015"
        inkscape:window-x="1920"
        inkscape:window-y="0"
        inkscape:window-maximized="1"
        fit-margin-top="0"
        fit-margin-left="0"
        fit-margin-right="0"
        fit-margin-bottom="0"/>
    <metadata
        id="metadata5">
        <rdf:RDF>
            <cc:Work
                rdf:about="">
                <dc:format>image/svg+xml</dc:format>
                <dc:type
                    rdf:resource="http://purl.org/dc/dcmitype/StillImage"/>
                <dc:title/>
            </cc:Work>
        </rdf:RDF>
    </metadata>
    <g
        inkscape:label="Layer 1"
        inkscape:groupmode="layer"
        id="layer1"
        transform="translate(-50.708742,-23.690311)">
        <rect
            style="fill:#ffffff;fill-opacity:1;stroke:#000000;stroke-width:0.49290088;stroke-miterlimit:4;stroke-dasharray:none;stroke-opacity:1"
            id="rect5139-2-9"
            width="44.507099"
            height="44.507099"
            x="95.462296"
            y="68.443863"
            inkscape:label="p"/>
        <rect
            style="fill:#ffffff;fill-opacity:1;stroke:#000000;stroke-width:0.49290088;stroke-miterlimit:4;stroke-dasharray:none;stroke-opacity:1"
            id="rect5139-2-99"
            width="44.507099"
            height="44.507099"
            x="139.96939"
            y="68.443863"
            inkscape:label="N"/>
        <rect
            style="fill:#ffffff;fill-opacity:1;stroke:#000000;stroke-width:0.49290088;stroke-miterlimit:4;stroke-dasharray:none;stroke-opacity:1"
            id="rect5139-2-4"
            width="44.507099"
            height="44.507099"
            x="50.955193"
            y="68.443863"
            inkscape:label="B"/>
        <rect
            style="fill:#ffffff;fill-opacity:1;stroke:#000000;stroke-width:0.49290088;stroke-miterlimit:4;stroke-dasharray:none;stroke-opacity:1"
            id="rect5139-2"
            width="44.507099"
            height="44.507099"
            x="50.955193"
            y="23.936762"
            inkscape:label="k"/>
        <rect
            style="fill:#ffffff;fill-opacity:1;stroke:#000000;stroke-width:0.49290088;stroke-miterlimit:4;stroke-dasharray:none;stroke-opacity:1"
            id="rect5139-0"
            width="44.507099"
            height="44.507099"
            x="139.96939"
            y="23.936762"
            inkscape:label="q"/>
        <rect
            style="fill:#ffffff;fill-opacity:1;stroke:#000000;stroke-width:0.49290088;stroke-miterlimit:4;stroke-dasharray:none;stroke-opacity:1"
            id="rect5139"
            width="44.507099"
            height="44.507099"
            x="95.462296"
            y="23.936762"
            inkscape:label="R"/>
    </g>
    <g
        inkscape:groupmode="layer"
        id="layer2"
        inkscape:label="Layer 2"
        transform="translate(-50.708742,-23.690311)">
        <path
            inkscape:href="#text3762"
            sodipodi:type="inkscape:offset"
            inkscape:radius="0"
            inkscape:original="M 78.583984 138.67188 C 78.232585 138.67188 77.931179 138.79734 77.679688 139.04883 C 77.428196 139.30032 77.302734 139.60126 77.302734 139.94922 C 77.302734 140.28684 77.417616 140.59353 77.648438 140.86914 C 77.303928 140.99316 77.037598 141.15324 76.851562 141.34961 C 76.665527 141.54253 76.574219 141.74297 76.574219 141.95312 L 76.574219 142.19727 L 77.875 142.19727 L 77.875 142.42383 C 77.875 143.29888 77.475043 144.33914 76.675781 145.54492 C 75.7146 145.74474 75.234375 146.32305 75.234375 147.27734 L 75.234375 147.6543 L 81.931641 147.6543 L 81.931641 147.27734 C 81.931641 146.32305 81.45383 145.74474 80.496094 145.54492 C 79.693387 144.33914 79.291016 143.29888 79.291016 142.42383 L 79.291016 142.19727 L 80.599609 142.19727 L 80.599609 141.95312 C 80.599609 141.74297 80.503933 141.54253 80.314453 141.34961 C 80.128418 141.15324 79.864502 140.99316 79.523438 140.86914 C 79.754259 140.59353 79.871094 140.28684 79.871094 139.94922 C 79.871094 139.60126 79.743679 139.30032 79.492188 139.04883 C 79.240696 138.79734 78.938829 138.67188 78.583984 138.67188 z M 78.583984 138.97656 C 78.856147 138.97656 79.085449 139.07224 79.271484 139.26172 C 79.460965 139.4512 79.554688 139.6805 79.554688 139.94922 C 79.554688 140.31095 79.399902 140.65226 79.089844 140.97266 C 79.823649 141.24137 80.215441 141.54565 80.263672 141.88672 L 76.910156 141.88672 C 76.954942 141.54565 77.34432 141.24137 78.078125 140.97266 C 77.768066 140.65226 77.611328 140.31095 77.611328 139.94922 C 77.611328 139.68395 77.707004 139.45706 77.896484 139.26758 C 78.085965 139.07465 78.315267 138.97656 78.583984 138.97656 z M 78.185547 142.19727 L 78.982422 142.19727 C 78.982422 143.30314 79.409288 144.49289 80.263672 145.76758 C 80.74943 145.86749 81.09649 146.03573 81.306641 146.27344 C 81.516791 146.5077 81.623047 146.8673 81.623047 147.34961 L 75.550781 147.34961 C 75.550781 146.8673 75.655084 146.5077 75.865234 146.27344 C 76.075385 146.03573 76.424398 145.86749 76.910156 145.76758 C 77.761095 144.49289 78.185547 143.30314 78.185547 142.19727 z "
            xlink:href="#text3762"
            style="font-style:normal;font-variant:normal;font-weight:normal;font-stretch:normal;font-size:10.58333302px;line-height:1.25;font-family:'Scid Chess Standard';-inkscape-font-specification:'Scid Chess Standard';letter-spacing:0px;word-spacing:0px;fill:#000000;fill-opacity:1;stroke:none;stroke-width:0.26458332"
            id="path3770"
            d="m 78.583984,138.67188 c -0.351399,0 -0.652805,0.12546 -0.904296,0.37695 -0.251492,0.25149 -0.376954,0.55243 -0.376954,0.90039 0,0.33762 0.114882,0.64431 0.345704,0.91992 -0.34451,0.12402 -0.61084,0.2841 -0.796876,0.48047 -0.186035,0.19292 -0.277343,0.39336 -0.277343,0.60351 v 0.24415 H 77.875 v 0.22656 c 0,0.87505 -0.399957,1.91531 -1.199219,3.12109 -0.961181,0.19982 -1.441406,0.77813 -1.441406,1.73242 v 0.37696 h 6.697266 v -0.37696 c 0,-0.95429 -0.477811,-1.5326 -1.435547,-1.73242 -0.802707,-1.20578 -1.205078,-2.24604 -1.205078,-3.12109 v -0.22656 h 1.308593 v -0.24415 c 0,-0.21015 -0.09568,-0.41059 -0.285156,-0.60351 -0.186035,-0.19637 -0.449951,-0.35645 -0.791015,-0.48047 0.230821,-0.27561 0.347656,-0.5823 0.347656,-0.91992 0,-0.34796 -0.127415,-0.6489 -0.378906,-0.90039 -0.251492,-0.25149 -0.553359,-0.37695 -0.908204,-0.37695 z m 0,0.30468 c 0.272163,0 0.501465,0.0957 0.6875,0.28516 0.189481,0.18948 0.283204,0.41878 0.283204,0.6875 0,0.36173 -0.154786,0.70304 -0.464844,1.02344 0.733805,0.26871 1.125597,0.57299 1.173828,0.91406 h -3.353516 c 0.04479,-0.34107 0.434164,-0.64535 1.167969,-0.91406 -0.310059,-0.3204 -0.466797,-0.66171 -0.466797,-1.02344 0,-0.26527 0.09568,-0.49216 0.285156,-0.68164 0.189481,-0.19293 0.418783,-0.29102 0.6875,-0.29102 z m -0.398437,3.22071 h 0.796875 c 0,1.10587 0.426866,2.29562 1.28125,3.57031 0.485758,0.0999 0.832818,0.26815 1.042969,0.50586 0.21015,0.23426 0.316406,0.59386 0.316406,1.07617 h -6.072266 c 0,-0.48231 0.104303,-0.84191 0.314453,-1.07617 0.210151,-0.23771 0.559164,-0.40595 1.044922,-0.50586 0.850939,-1.27469 1.275391,-2.46444 1.275391,-3.57031 z"
            transform="matrix(3.8965002,0,0,3.8965002,-188.48286,-467.1376)"
            inkscape:label="p"/>
        <path
            inkscape:href="#text3766"
            sodipodi:type="inkscape:offset"
            inkscape:radius="0"
            inkscape:original="M 151.71484 139.2832 C 151.64594 139.79997 151.54693 140.17635 151.41602 140.41406 L 151.12695 140.42383 C 150.81 139.88639 150.48503 139.54462 150.1543 139.39648 L 150.1543 140.06836 C 150.1543 140.35775 150.13314 140.58705 150.0918 140.75586 C 150.05046 140.92122 149.95144 141.12166 149.79297 141.35938 C 149.66895 141.53852 149.58914 141.68226 149.55469 141.78906 C 149.52024 141.89586 149.49045 142.07709 149.46289 142.33203 C 149.43533 142.56974 149.37956 142.76777 149.29688 142.92969 C 149.21419 143.08816 149.02192 143.37036 148.71875 143.77344 C 148.30534 144.3281 148.09766 144.75496 148.09766 145.05469 C 148.09766 145.54389 148.37744 145.9496 148.93555 146.27344 C 148.98378 146.26655 149.10395 146.07427 149.29688 145.69531 C 149.46224 145.37147 149.59299 145.20898 149.68945 145.20898 C 149.81348 145.20898 149.875 145.27534 149.875 145.40625 C 149.875 145.5096 149.82406 145.62977 149.7207 145.76758 C 149.63113 145.87782 149.56719 145.98454 149.5293 146.08789 C 149.4914 146.19124 149.47266 146.33786 149.47266 146.52734 C 149.57601 146.5549 149.69906 146.56836 149.84375 146.56836 C 149.98844 146.56836 150.11632 146.50925 150.22656 146.38867 C 150.33681 146.26465 150.40891 146.08917 150.44336 145.86523 C 150.51226 145.3967 150.68821 145.12416 150.9707 145.04492 C 151.79064 144.84855 152.29731 144.67261 152.49023 144.51758 C 152.55914 144.62782 152.59375 144.735 152.59375 144.8418 C 152.59375 145.31722 152.32454 145.71143 151.78711 146.02148 C 151.35992 146.26953 151.06334 146.5714 150.89453 146.92969 C 150.72572 147.28453 150.64062 147.7965 150.64062 148.46484 L 157.27539 148.46484 L 157.27539 147.08594 C 157.27539 144.83629 156.91821 143.24175 156.20508 142.30469 C 155.49194 141.36418 154.36854 140.79598 152.83203 140.59961 C 152.74935 140.47559 152.60514 140.2564 152.39844 139.93945 C 152.19173 139.61906 151.96289 139.40034 151.71484 139.2832 z M 151.35352 140.76562 C 151.33974 140.84142 151.31812 140.91352 151.28711 140.98242 C 151.2561 141.05132 151.16859 141.10756 151.02734 141.15234 C 150.88609 141.19713 150.76546 141.2207 150.66211 141.2207 C 150.68967 141.07601 150.7781 140.964 150.92969 140.88477 C 151.08127 140.80553 151.2226 140.76562 151.35352 140.76562 z M 153.06836 140.97266 C 153.46799 140.97266 153.99295 141.14377 154.64062 141.48828 C 155.2883 141.83279 155.79544 142.43273 156.16406 143.28711 C 156.53269 144.14149 156.7168 145.48028 156.7168 147.30273 L 156.7168 148.16016 L 155.76758 148.16016 C 155.87093 147.51937 155.92188 146.97808 155.92188 146.53711 C 155.92188 144.90413 155.67912 143.68793 155.19336 142.88867 C 154.7076 142.08596 153.97163 141.56055 152.98633 141.3125 C 152.95877 141.30561 152.92898 141.28399 152.89453 141.24609 C 152.86008 141.2082 152.8418 141.17117 152.8418 141.13672 C 152.8418 141.02648 152.91678 140.97266 153.06836 140.97266 z M 150.92969 142.16016 L 151.16797 142.16016 L 151.20898 142.25977 C 151.07807 142.29077 150.96848 142.34172 150.87891 142.41406 L 150.89844 142.62109 C 150.89844 142.67277 150.83691 142.729 150.71289 142.79102 L 150.47461 142.75977 L 150.43359 142.83203 L 150.43359 143.06055 C 150.26823 142.92963 150.18555 142.81809 150.18555 142.72852 C 150.18555 142.60449 150.27881 142.47903 150.46484 142.35156 C 150.65088 142.22409 150.80566 142.16016 150.92969 142.16016 z M 149.01758 144.70312 C 148.99002 144.79959 148.93424 144.87986 148.85156 144.94531 L 149.00781 145.13281 C 149.00781 145.19482 148.98665 145.24577 148.94531 145.28711 C 148.90397 145.32501 148.8559 145.34375 148.80078 145.34375 C 148.69054 145.34375 148.63477 145.25819 148.63477 145.08594 C 148.63477 144.97914 148.67179 144.88875 148.74414 144.81641 C 148.81649 144.74061 148.90734 144.70312 149.01758 144.70312 z "
            xlink:href="#text3766"
            style="font-style:normal;font-variant:normal;font-weight:normal;font-stretch:normal;font-size:10.58333302px;line-height:1.25;font-family:'Scid Chess Standard';-inkscape-font-specification:'Scid Chess Standard';letter-spacing:0px;word-spacing:0px;fill:#000000;fill-opacity:1;stroke:none;stroke-width:0.26458332"
            id="path3772"
            d="m 151.71484,139.2832 c -0.0689,0.51677 -0.16791,0.89315 -0.29882,1.13086 l -0.28907,0.01 c -0.31695,-0.53744 -0.64192,-0.87921 -0.97265,-1.02735 v 0.67188 c 0,0.28939 -0.0212,0.51869 -0.0625,0.6875 -0.0413,0.16536 -0.14036,0.3658 -0.29883,0.60352 -0.12402,0.17914 -0.20383,0.32288 -0.23828,0.42968 -0.0344,0.1068 -0.0642,0.28803 -0.0918,0.54297 -0.0276,0.23771 -0.0833,0.43574 -0.16601,0.59766 -0.0827,0.15847 -0.27496,0.44067 -0.57813,0.84375 -0.41341,0.55466 -0.62109,0.98152 -0.62109,1.28125 0,0.4892 0.27978,0.89491 0.83789,1.21875 0.0482,-0.007 0.1684,-0.19917 0.36133,-0.57813 0.16536,-0.32384 0.29611,-0.48633 0.39257,-0.48633 0.12403,0 0.18555,0.0664 0.18555,0.19727 0,0.10335 -0.0509,0.22352 -0.1543,0.36133 -0.0896,0.11024 -0.15351,0.21696 -0.1914,0.32031 -0.0379,0.10335 -0.0566,0.24997 -0.0566,0.43945 0.10335,0.0276 0.2264,0.041 0.37109,0.041 0.14469,0 0.27257,-0.0591 0.38281,-0.17969 0.11025,-0.12402 0.18235,-0.2995 0.2168,-0.52344 0.0689,-0.46853 0.24485,-0.74107 0.52734,-0.82031 0.81994,-0.19637 1.32661,-0.37231 1.51953,-0.52734 0.0689,0.11024 0.10352,0.21742 0.10352,0.32422 0,0.47542 -0.26921,0.86963 -0.80664,1.17968 -0.42719,0.24805 -0.72377,0.54992 -0.89258,0.90821 -0.16881,0.35484 -0.25391,0.86681 -0.25391,1.53515 h 6.63477 v -1.3789 c 0,-2.24965 -0.35718,-3.84419 -1.07031,-4.78125 -0.71314,-0.94051 -1.83654,-1.50871 -3.37305,-1.70508 -0.0827,-0.12402 -0.22689,-0.34321 -0.43359,-0.66016 -0.20671,-0.32039 -0.43555,-0.53911 -0.6836,-0.65625 z m -0.36132,1.48242 c -0.0138,0.0758 -0.0354,0.1479 -0.0664,0.2168 -0.031,0.0689 -0.11852,0.12514 -0.25977,0.16992 -0.14125,0.0448 -0.26188,0.0684 -0.36523,0.0684 0.0276,-0.14469 0.11599,-0.2567 0.26758,-0.33593 0.15158,-0.0792 0.29291,-0.11915 0.42383,-0.11915 z m 1.71484,0.20704 c 0.39963,0 0.92459,0.17111 1.57226,0.51562 0.64768,0.34451 1.15482,0.94445 1.52344,1.79883 0.36863,0.85438 0.55274,2.19317 0.55274,4.01562 v 0.85743 h -0.94922 c 0.10335,-0.64079 0.1543,-1.18208 0.1543,-1.62305 0,-1.63298 -0.24276,-2.84918 -0.72852,-3.64844 -0.48576,-0.80271 -1.22173,-1.32812 -2.20703,-1.57617 -0.0276,-0.007 -0.0574,-0.0285 -0.0918,-0.0664 -0.0344,-0.0379 -0.0527,-0.0749 -0.0527,-0.10937 0,-0.11024 0.075,-0.16406 0.22656,-0.16406 z m -2.13867,1.1875 h 0.23828 l 0.041,0.0996 c -0.13091,0.031 -0.2405,0.082 -0.33007,0.15429 l 0.0195,0.20703 c 0,0.0517 -0.0615,0.10791 -0.18555,0.16993 l -0.23828,-0.0312 -0.041,0.0723 v 0.22852 c -0.16536,-0.13092 -0.24804,-0.24246 -0.24804,-0.33203 0,-0.12403 0.0933,-0.24949 0.27929,-0.37696 0.18604,-0.12747 0.34082,-0.1914 0.46485,-0.1914 z m -1.91211,2.54296 c -0.0276,0.0965 -0.0833,0.17674 -0.16602,0.24219 l 0.15625,0.1875 c 0,0.062 -0.0212,0.11296 -0.0625,0.1543 -0.0413,0.0379 -0.0894,0.0566 -0.14453,0.0566 -0.11024,0 -0.16601,-0.0856 -0.16601,-0.25781 0,-0.1068 0.037,-0.19719 0.10937,-0.26953 0.0724,-0.0758 0.1632,-0.11329 0.27344,-0.11329 z"
            transform="matrix(3.8119553,0,0,3.8119553,-419.81127,-457.74392)"
            inkscape:label="N"/>
        <path
            inkscape:href="#text3752"
            sodipodi:type="inkscape:offset"
            inkscape:radius="0"
            inkscape:original="M 118.33398 7.0703125 C 118.18585 7.0703125 118.0628 7.1212565 117.96289 7.2246094 C 117.86298 7.3279622 117.8125 7.4534234 117.8125 7.6015625 C 117.8125 7.8599447 117.9375 8.0301378 118.18555 8.109375 L 117.62695 10.697266 L 116.47852 8.3730469 C 116.63699 8.2628038 116.7168 8.1113552 116.7168 7.921875 C 116.7168 7.777181 116.66631 7.6541341 116.56641 7.5507812 C 116.4665 7.4474284 116.34345 7.3964844 116.19531 7.3964844 C 116.04717 7.3964844 115.92171 7.4474284 115.81836 7.5507812 C 115.71501 7.650689 115.66211 7.7737359 115.66211 7.921875 C 115.66211 8.0700141 115.71501 8.1974284 115.81836 8.3007812 C 115.92171 8.4041341 116.04188 8.4550781 116.17969 8.4550781 L 116.33398 11.039062 L 114.56641 9.1367188 C 114.69732 9.036811 114.76367 8.9007704 114.76367 8.7285156 C 114.76367 8.5803765 114.71273 8.4549154 114.60938 8.3515625 C 114.50602 8.2482096 114.38102 8.1972656 114.23633 8.1972656 C 114.08474 8.1972656 113.95687 8.2482096 113.85352 8.3515625 C 113.75016 8.4549154 113.69922 8.5803765 113.69922 8.7285156 C 113.69922 8.8732096 113.75016 8.9982096 113.85352 9.1015625 C 113.95687 9.2049154 114.08474 9.2558594 114.23633 9.2558594 L 114.28906 9.2558594 L 115.58984 12.357422 L 115.58984 14.734375 C 115.58984 14.999647 115.88308 15.22366 116.46875 15.40625 C 117.05442 15.585395 117.67839 15.673828 118.33984 15.673828 C 119.0013 15.673828 119.62527 15.585395 120.21094 15.40625 C 120.7966 15.22366 121.08984 14.999647 121.08984 14.734375 L 121.08984 12.357422 L 122.38086 9.2558594 L 122.44336 9.2558594 C 122.59494 9.2558594 122.72282 9.2049154 122.82617 9.1015625 C 122.92952 8.9982096 122.98047 8.8732096 122.98047 8.7285156 C 122.98047 8.5803765 122.92952 8.4549154 122.82617 8.3515625 C 122.72282 8.2482096 122.59494 8.1972656 122.44336 8.1972656 C 122.29867 8.1972656 122.17367 8.2482096 122.07031 8.3515625 C 121.96696 8.4549154 121.91602 8.5803765 121.91602 8.7285156 C 121.91602 8.8973253 121.98041 9.0381944 122.11133 9.1484375 C 122.11133 9.1449924 121.82004 9.4550239 121.23438 10.082031 L 120.3457 11.039062 L 120.49023 8.4550781 C 120.63493 8.4550781 120.75798 8.4041341 120.86133 8.3007812 C 120.96468 8.1974284 121.01562 8.0724284 121.01562 7.9277344 C 121.01562 7.7795953 120.96468 7.6541341 120.86133 7.5507812 C 120.75798 7.4474284 120.63251 7.3964844 120.48438 7.3964844 C 120.33624 7.3964844 120.21124 7.4474284 120.11133 7.5507812 C 120.01142 7.6541341 119.96289 7.777181 119.96289 7.921875 C 119.96289 8.1216905 120.04074 8.2731391 120.19922 8.3730469 L 119.05273 10.697266 L 118.49414 8.109375 C 118.74219 8.0301378 118.86719 7.8599447 118.86719 7.6015625 C 118.86719 7.4534234 118.81429 7.3279622 118.71094 7.2246094 C 118.60758 7.1212565 118.48212 7.0703125 118.33398 7.0703125 z M 118.33984 7.3535156 C 118.40875 7.3535156 118.46498 7.3799642 118.50977 7.4316406 C 118.55455 7.479872 118.57812 7.5361057 118.57812 7.6015625 C 118.57812 7.6635742 118.55455 7.7217611 118.50977 7.7734375 C 118.46498 7.8216688 118.40875 7.8457031 118.33984 7.8457031 C 118.27094 7.8457031 118.21229 7.8216688 118.16406 7.7734375 C 118.11583 7.7217611 118.0918 7.6635742 118.0918 7.6015625 C 118.0918 7.5361057 118.11583 7.479872 118.16406 7.4316406 C 118.21229 7.3799642 118.27094 7.3535156 118.33984 7.3535156 z M 116.19531 7.6796875 C 116.26077 7.6796875 116.317 7.7037218 116.36523 7.7519531 C 116.41347 7.8001845 116.4375 7.8564182 116.4375 7.921875 C 116.4375 7.9873318 116.41347 8.0455187 116.36523 8.09375 C 116.317 8.1419813 116.26077 8.1660156 116.19531 8.1660156 C 116.12986 8.1660156 116.07362 8.1419813 116.02539 8.09375 C 115.97716 8.0455187 115.95312 7.9873318 115.95312 7.921875 C 115.95312 7.8564182 115.97716 7.8001845 116.02539 7.7519531 C 116.07362 7.7037218 116.12986 7.6796875 116.19531 7.6796875 z M 120.48438 7.6796875 C 120.54983 7.6796875 120.60607 7.7037218 120.6543 7.7519531 C 120.70253 7.8001845 120.72656 7.8564182 120.72656 7.921875 C 120.72656 7.9873318 120.70253 8.0455187 120.6543 8.09375 C 120.60607 8.1419813 120.54983 8.1660156 120.48438 8.1660156 C 120.41892 8.1660156 120.36268 8.1419813 120.31445 8.09375 C 120.26622 8.0455187 120.24219 7.9873318 120.24219 7.921875 C 120.24219 7.8564182 120.26622 7.8001845 120.31445 7.7519531 C 120.36268 7.7037218 120.41892 7.6796875 120.48438 7.6796875 z M 114.23633 8.4863281 C 114.29834 8.4863281 114.35411 8.5103624 114.40234 8.5585938 C 114.45058 8.6068251 114.47461 8.6630588 114.47461 8.7285156 C 114.47461 8.7939724 114.45058 8.8521593 114.40234 8.9003906 C 114.35411 8.948622 114.29834 8.9726562 114.23633 8.9726562 C 114.16743 8.9726562 114.10878 8.948622 114.06055 8.9003906 C 114.01232 8.8521593 113.98828 8.7939724 113.98828 8.7285156 C 113.98828 8.6630588 114.01232 8.6068251 114.06055 8.5585938 C 114.10878 8.5103624 114.16743 8.4863281 114.23633 8.4863281 z M 122.44727 8.4863281 C 122.51272 8.4863281 122.57091 8.5103624 122.61914 8.5585938 C 122.66737 8.6068251 122.69141 8.6630588 122.69141 8.7285156 C 122.69141 8.7939724 122.66737 8.8521593 122.61914 8.9003906 C 122.57091 8.948622 122.51272 8.9726562 122.44727 8.9726562 C 122.38181 8.9726562 122.32558 8.948622 122.27734 8.9003906 C 122.22911 8.8521593 122.20508 8.7939724 122.20508 8.7285156 C 122.20508 8.6630588 122.22911 8.6068251 122.27734 8.5585938 C 122.32558 8.5103624 122.38181 8.4863281 122.44727 8.4863281 z M 118.33984 8.7402344 L 118.93945 11.560547 L 120.1582 9.1171875 L 120.00391 11.808594 L 121.8125 9.8769531 L 120.72656 12.480469 C 120.13401 12.115289 119.33892 11.933594 118.33984 11.933594 C 117.33388 11.933594 116.53879 12.115289 115.95312 12.480469 L 114.85742 9.8769531 L 116.67578 11.808594 L 116.52148 9.1171875 L 117.74023 11.560547 L 118.33984 8.7402344 z M 118.33984 12.212891 C 118.90484 12.212891 119.41439 12.279704 119.86914 12.414062 C 120.32389 12.548421 120.63346 12.727241 120.79883 12.951172 L 120.79883 13.095703 L 120.41797 13.333984 L 120.79883 13.933594 L 120.79883 14.154297 C 120.12359 13.782227 119.30447 13.597656 118.33984 13.597656 C 117.37522 13.597656 116.5561 13.782227 115.88086 14.154297 L 115.88086 13.933594 L 116.26172 13.333984 L 115.88086 13.095703 L 115.88086 12.951172 C 116.04622 12.727241 116.35579 12.548421 116.81055 12.414062 C 117.2653 12.279704 117.77485 12.212891 118.33984 12.212891 z M 118.33984 12.464844 L 117.70898 12.863281 L 118.33984 13.3125 L 118.9707 12.863281 L 118.33984 12.464844 z M 118.33984 13.880859 C 118.93929 13.880859 119.49932 13.965956 120.01953 14.134766 C 120.53974 14.303575 120.79883 14.469401 120.79883 14.634766 C 120.79883 14.820801 120.51329 14.993869 119.94141 15.152344 C 119.36952 15.307373 118.83594 15.384766 118.33984 15.384766 C 117.84375 15.384766 117.31017 15.307373 116.73828 15.152344 C 116.1664 14.993869 115.88086 14.820801 115.88086 14.634766 C 115.88086 14.469401 116.13995 14.303575 116.66016 14.134766 C 117.18037 13.965956 117.7404 13.880859 118.33984 13.880859 z "
            xlink:href="#text3752"
            style="font-style:normal;font-variant:normal;font-weight:normal;font-stretch:normal;font-size:10.58333302px;line-height:1.25;font-family:'Scid Chess Standard';-inkscape-font-specification:'Scid Chess Standard';letter-spacing:0px;word-spacing:0px;fill:#000000;fill-opacity:1;stroke:none;stroke-width:0.26458332"
            id="path3754"
            d="m 118.33398,7.0703125 c -0.14813,0 -0.27118,0.050944 -0.37109,0.1542969 -0.0999,0.1033528 -0.15039,0.228814 -0.15039,0.3769531 0,0.2583822 0.125,0.4285753 0.37305,0.5078125 l -0.5586,2.587891 -1.14843,-2.3242191 c 0.15847,-0.1102431 0.23828,-0.2616917 0.23828,-0.4511719 0,-0.144694 -0.0505,-0.2677409 -0.15039,-0.3710938 -0.0999,-0.1033528 -0.22296,-0.1542968 -0.3711,-0.1542968 -0.14814,0 -0.2736,0.050944 -0.37695,0.1542968 -0.10335,0.099908 -0.15625,0.2229547 -0.15625,0.3710938 0,0.1481391 0.0529,0.2755534 0.15625,0.3789062 0.10335,0.1033529 0.22352,0.1542969 0.36133,0.1542969 l 0.15429,2.5839839 -1.76757,-1.9023432 c 0.13091,-0.099908 0.19726,-0.2359484 0.19726,-0.4082032 0,-0.1481391 -0.0509,-0.2736002 -0.15429,-0.3769531 -0.10336,-0.1033529 -0.22836,-0.1542969 -0.37305,-0.1542969 -0.15159,0 -0.27946,0.050944 -0.38281,0.1542969 -0.10336,0.1033529 -0.1543,0.228814 -0.1543,0.3769531 0,0.144694 0.0509,0.269694 0.1543,0.3730469 0.10335,0.1033529 0.23122,0.1542969 0.38281,0.1542969 h 0.0527 l 1.30078,3.1015626 v 2.376953 c 0,0.265272 0.29324,0.489285 0.87891,0.671875 0.58567,0.179145 1.20964,0.267578 1.87109,0.267578 0.66146,0 1.28543,-0.08843 1.8711,-0.267578 0.58566,-0.18259 0.8789,-0.406603 0.8789,-0.671875 v -2.376953 l 1.29102,-3.1015626 h 0.0625 c 0.15158,0 0.27946,-0.050944 0.38281,-0.1542969 0.10335,-0.1033529 0.1543,-0.2283529 0.1543,-0.3730469 0,-0.1481391 -0.051,-0.2736002 -0.1543,-0.3769531 -0.10335,-0.1033529 -0.23123,-0.1542969 -0.38281,-0.1542969 -0.14469,0 -0.26969,0.050944 -0.37305,0.1542969 -0.10335,0.1033529 -0.15429,0.228814 -0.15429,0.3769531 0,0.1688097 0.0644,0.3096788 0.19531,0.4199219 0,-0.00345 -0.29129,0.3065864 -0.87695,0.9335935 l -0.88868,0.957031 0.14453,-2.5839839 c 0.1447,0 0.26775,-0.050944 0.3711,-0.1542969 0.10335,-0.1033528 0.15429,-0.2283528 0.15429,-0.3730468 0,-0.1481391 -0.0509,-0.2736003 -0.15429,-0.3769532 -0.10335,-0.1033528 -0.22882,-0.1542968 -0.37695,-0.1542968 -0.14814,0 -0.27314,0.050944 -0.37305,0.1542968 -0.0999,0.1033529 -0.14844,0.2263998 -0.14844,0.3710938 0,0.1998155 0.0778,0.3512641 0.23633,0.4511719 l -1.14649,2.3242191 -0.55859,-2.587891 c 0.24805,-0.079237 0.37305,-0.2494303 0.37305,-0.5078125 0,-0.1481391 -0.0529,-0.2736003 -0.15625,-0.3769531 -0.10336,-0.1033529 -0.22882,-0.1542969 -0.37696,-0.1542969 z m 0.006,0.2832031 c 0.0689,0 0.12514,0.026449 0.16993,0.078125 0.0448,0.048231 0.0683,0.1044651 0.0683,0.1699219 0,0.062012 -0.0236,0.1201986 -0.0683,0.171875 -0.0448,0.048231 -0.10102,0.072266 -0.16993,0.072266 -0.0689,0 -0.12755,-0.024034 -0.17578,-0.072266 -0.0482,-0.051676 -0.0723,-0.1098633 -0.0723,-0.171875 0,-0.065457 0.024,-0.1216905 0.0723,-0.1699219 0.0482,-0.051676 0.10688,-0.078125 0.17578,-0.078125 z m -2.14453,0.3261719 c 0.0655,0 0.12169,0.024034 0.16992,0.072266 0.0482,0.048231 0.0723,0.1044651 0.0723,0.1699219 0,0.065457 -0.024,0.1236437 -0.0723,0.171875 -0.0482,0.048231 -0.10446,0.072266 -0.16992,0.072266 -0.0655,0 -0.12169,-0.024034 -0.16992,-0.072266 -0.0482,-0.048231 -0.0723,-0.1064182 -0.0723,-0.171875 0,-0.065457 0.024,-0.1216905 0.0723,-0.1699219 0.0482,-0.048231 0.10447,-0.072266 0.16992,-0.072266 z m 4.28907,0 c 0.0654,0 0.12169,0.024034 0.16992,0.072266 0.0482,0.048231 0.0723,0.1044651 0.0723,0.1699219 0,0.065457 -0.024,0.1236437 -0.0723,0.171875 -0.0482,0.048231 -0.10447,0.072266 -0.16992,0.072266 -0.0655,0 -0.1217,-0.024034 -0.16993,-0.072266 -0.0482,-0.048231 -0.0723,-0.1064182 -0.0723,-0.171875 0,-0.065457 0.024,-0.1216905 0.0723,-0.1699219 0.0482,-0.048231 0.10447,-0.072266 0.16993,-0.072266 z m -6.24805,0.8066406 c 0.062,0 0.11778,0.024034 0.16601,0.072266 0.0482,0.048231 0.0723,0.104465 0.0723,0.1699218 0,0.065457 -0.024,0.1236437 -0.0723,0.171875 -0.0482,0.048231 -0.104,0.072266 -0.16601,0.072266 -0.0689,0 -0.12755,-0.024034 -0.17578,-0.072266 -0.0482,-0.048231 -0.0723,-0.1064182 -0.0723,-0.171875 0,-0.065457 0.024,-0.1216905 0.0723,-0.1699218 0.0482,-0.048231 0.10688,-0.072266 0.17578,-0.072266 z m 8.21094,0 c 0.0654,0 0.12364,0.024034 0.17187,0.072266 0.0482,0.048231 0.0723,0.104465 0.0723,0.1699218 0,0.065457 -0.024,0.1236437 -0.0723,0.171875 -0.0482,0.048231 -0.10642,0.072266 -0.17187,0.072266 -0.0655,0 -0.12169,-0.024034 -0.16993,-0.072266 -0.0482,-0.048231 -0.0723,-0.1064182 -0.0723,-0.171875 0,-0.065457 0.024,-0.1216905 0.0723,-0.1699218 0.0482,-0.048231 0.10447,-0.072266 0.16993,-0.072266 z m -4.10743,0.2539063 0.59961,2.8203126 1.21875,-2.4433595 -0.15429,2.6914065 1.80859,-1.9316409 -1.08594,2.6035159 c -0.59255,-0.36518 -1.38764,-0.546875 -2.38672,-0.546875 -1.00596,0 -1.80105,0.181695 -2.38672,0.546875 l -1.0957,-2.6035159 1.81836,1.9316409 -0.1543,-2.6914065 1.21875,2.4433595 z m 0,3.4726566 c 0.565,0 1.07455,0.06681 1.5293,0.201171 0.45475,0.134359 0.76432,0.313179 0.92969,0.53711 v 0.144531 l -0.38086,0.238281 0.38086,0.59961 v 0.220703 c -0.67524,-0.37207 -1.49436,-0.556641 -2.45899,-0.556641 -0.96462,0 -1.78374,0.184571 -2.45898,0.556641 v -0.220703 l 0.38086,-0.59961 -0.38086,-0.238281 v -0.144531 c 0.16536,-0.223931 0.47493,-0.402751 0.92969,-0.53711 0.45475,-0.134358 0.9643,-0.201171 1.52929,-0.201171 z m 0,0.251953 -0.63086,0.398437 0.63086,0.449219 0.63086,-0.449219 z m 0,1.416015 c 0.59945,0 1.15948,0.0851 1.67969,0.253907 0.52021,0.168809 0.7793,0.334635 0.7793,0.5 0,0.186035 -0.28554,0.359103 -0.85742,0.517578 -0.57189,0.155029 -1.10547,0.232422 -1.60157,0.232422 -0.49609,0 -1.02967,-0.07739 -1.60156,-0.232422 -0.57188,-0.158475 -0.85742,-0.331543 -0.85742,-0.517578 0,-0.165365 0.25909,-0.331191 0.7793,-0.5 0.52021,-0.16881 1.08024,-0.253907 1.67968,-0.253907 z"
            transform="matrix(3.7710438,0,0,3.7710438,-284.0418,3.3057364)"
            inkscape:label="q"/>
        <path
            inkscape:href="#text3758"
            sodipodi:type="inkscape:offset"
            inkscape:radius="0"
            inkscape:original="M 4.2089844 130.52539 C 3.9919434 130.52539 3.8078342 130.60037 3.65625 130.75195 C 3.5046658 130.90354 3.4296875 131.08523 3.4296875 131.29883 C 3.4296875 131.64678 3.5950521 131.89195 3.9257812 132.0332 L 2.34375 133.37109 C 2.1335992 133.55024 1.957194 133.76034 1.8125 133.99805 C 1.667806 134.23576 1.5957031 134.49772 1.5957031 134.78711 C 1.5957031 135.359 1.857666 135.83059 2.3847656 136.19922 L 2.3847656 137.65625 C 2.5466851 137.8285 2.8774143 137.95638 3.3769531 138.03906 C 3.2425944 138.23888 3.1248372 138.3648 3.0214844 138.41992 C 2.9181315 138.47504 2.7527669 138.50391 2.5253906 138.50391 C 2.4358181 138.50391 2.2786187 138.48562 2.0546875 138.45117 C 1.7274034 138.40294 1.4740668 138.37891 1.2949219 138.37891 C 0.89873591 138.37891 0.56225585 138.43468 0.28320312 138.54492 C 0.004150399 138.65516 -0.20594618 138.80225 -0.34375 138.98828 C -0.48155382 139.17432 -0.54882812 139.35796 -0.54882812 139.53711 L -0.54882812 139.81055 L 0.7109375 139.81055 C 0.7109375 139.67963 0.82006837 139.61523 1.0371094 139.61523 C 1.0818956 139.61523 1.2684191 139.63444 1.5957031 139.67578 C 2.1469184 139.74468 2.4886882 139.7793 2.6230469 139.7793 C 3.0502387 139.7793 3.4050022 139.68845 3.6875 139.50586 C 3.9734429 139.31982 4.1469727 139.06936 4.2089844 138.75586 C 4.267551 139.06936 4.4406196 139.31982 4.7265625 139.50586 C 5.0125054 139.68845 5.3672689 139.7793 5.7910156 139.7793 C 5.9253743 139.7793 6.2695584 139.74468 6.8242188 139.67578 C 7.1480577 139.63444 7.3345812 139.61523 7.3828125 139.61523 C 7.5998535 139.61523 7.7089844 139.67963 7.7089844 139.81055 L 8.96875 139.81055 L 8.96875 139.53711 C 8.96875 139.24083 8.8110894 138.97404 8.4941406 138.73633 C 8.1771918 138.49862 7.7185872 138.37891 7.1191406 138.37891 C 6.9399957 138.37891 6.6890733 138.40294 6.3652344 138.45117 C 6.1378581 138.48562 5.9806586 138.50391 5.8945312 138.50391 C 5.667155 138.50391 5.4993761 138.47504 5.3925781 138.41992 C 5.2892253 138.3648 5.1690538 138.23888 5.03125 138.03906 C 5.5307888 137.95638 5.8643935 137.8285 6.0332031 137.65625 L 6.0332031 136.19922 C 6.5603027 135.83059 6.8242188 135.359 6.8242188 134.78711 C 6.8242188 134.55284 6.7708605 134.32837 6.6640625 134.11133 C 6.5572645 133.89084 6.4159342 133.69903 6.2402344 133.53711 C 6.0645345 133.37174 5.482883 132.87036 4.4941406 132.0332 C 4.8214247 131.89195 4.984375 131.64678 4.984375 131.29883 C 4.984375 131.08523 4.9093967 130.90354 4.7578125 130.75195 C 4.6096734 130.60037 4.4260254 130.52539 4.2089844 130.52539 z M 4.2050781 130.87109 C 4.3256565 130.87109 4.4294976 130.91387 4.515625 131 C 4.6017524 131.08268 4.6445312 131.18411 4.6445312 131.30469 C 4.6445312 131.42182 4.6017524 131.52325 4.515625 131.60938 C 4.4294976 131.6955 4.3256565 131.73828 4.2050781 131.73828 C 4.0879449 131.73828 3.986518 131.6955 3.9003906 131.60938 C 3.8142632 131.52325 3.7714844 131.42182 3.7714844 131.30469 C 3.7714844 131.18411 3.8142632 131.08268 3.9003906 131 C 3.986518 130.91387 4.0879449 130.87109 4.2050781 130.87109 z M 4.0449219 133.51562 L 4.3691406 133.51562 L 4.3691406 134.20312 L 5.0527344 134.20312 L 5.0527344 134.52344 L 4.3691406 134.52344 L 4.3691406 135.2168 L 4.0449219 135.2168 L 4.0449219 134.52344 L 3.3574219 134.52344 L 3.3574219 134.20312 L 4.0449219 134.20312 L 4.0449219 133.51562 z M 4.2089844 135.75391 C 4.5810547 135.75391 5.0848524 135.83659 5.71875 136.00195 L 5.7089844 136.32227 C 5.2163357 136.15346 4.7149522 136.07031 4.2050781 136.07031 C 3.6986491 136.07031 3.1996799 136.15346 2.7070312 136.32227 L 2.6953125 136.00195 C 3.325765 135.83659 3.8300239 135.75391 4.2089844 135.75391 z M 4.2089844 136.30273 L 4.6699219 136.60156 L 4.2089844 136.90234 L 3.75 136.60156 L 4.2089844 136.30273 z M 2.7070312 136.55469 L 2.984375 136.73633 L 2.7070312 137.04688 L 2.7070312 136.55469 z M 5.7089844 136.55469 L 5.7089844 137.04688 L 5.4355469 136.73633 L 5.7089844 136.55469 z M 4.2089844 137.16406 C 4.8704427 137.16406 5.371365 137.22512 5.7089844 137.3457 L 5.7089844 137.65625 C 5.3748101 137.53912 4.8738878 137.48047 4.2089844 137.48047 C 3.544081 137.48047 3.0446506 137.53912 2.7070312 137.65625 L 2.7070312 137.3457 C 3.0480957 137.22512 3.5475261 137.16406 4.2089844 137.16406 z "
            xlink:href="#text3758"
            style="font-style:normal;font-variant:normal;font-weight:normal;font-stretch:normal;font-size:10.58333302px;line-height:1.25;font-family:'Scid Chess Standard';-inkscape-font-specification:'Scid Chess Standard';letter-spacing:0px;word-spacing:0px;fill:#000000;fill-opacity:1;stroke:none;stroke-width:0.26458332"
            id="path3768"
            d="m 4.2089844,130.52539 c -0.217041,0 -0.4011502,0.075 -0.5527344,0.22656 -0.1515842,0.15159 -0.2265625,0.33328 -0.2265625,0.54688 0,0.34795 0.1653646,0.59312 0.4960937,0.73437 L 2.34375,133.37109 c -0.2101508,0.17915 -0.386556,0.38925 -0.53125,0.62696 -0.144694,0.23771 -0.2167969,0.49967 -0.2167969,0.78906 0,0.57189 0.2619629,1.04348 0.7890625,1.41211 v 1.45703 c 0.1619195,0.17225 0.4926487,0.30013 0.9921875,0.38281 -0.1343587,0.19982 -0.2521159,0.32574 -0.3554687,0.38086 -0.1033529,0.0551 -0.2687175,0.084 -0.4960938,0.084 -0.089573,0 -0.2467719,-0.0183 -0.4707031,-0.0527 -0.3272841,-0.0482 -0.5806207,-0.0723 -0.7597656,-0.0723 -0.39618599,0 -0.73266605,0.0558 -1.01171878,0.16601 -0.27905272,0.11024 -0.4891493,0.25733 -0.62695312,0.44336 -0.13780382,0.18604 -0.20507812,0.36968 -0.20507812,0.54883 v 0.27344 H 0.7109375 c 0,-0.13092 0.10913087,-0.19532 0.3261719,-0.19532 0.044786,0 0.2313097,0.0192 0.5585937,0.0606 0.5512153,0.0689 0.8929851,0.10352 1.0273438,0.10352 0.4271918,0 0.7819553,-0.0909 1.0644531,-0.27344 0.2859429,-0.18604 0.4594727,-0.4365 0.5214844,-0.75 0.058567,0.3135 0.2316352,0.56396 0.5175781,0.75 0.2859429,0.18259 0.6407064,0.27344 1.0644531,0.27344 0.1343587,0 0.4785428,-0.0346 1.0332032,-0.10352 0.3238389,-0.0413 0.5103624,-0.0606 0.5585937,-0.0606 0.217041,0 0.3261719,0.0644 0.3261719,0.19532 H 8.96875 v -0.27344 c 0,-0.29628 -0.1576606,-0.56307 -0.4746094,-0.80078 -0.3169488,-0.23771 -0.7755534,-0.35742 -1.375,-0.35742 -0.1791449,0 -0.4300673,0.024 -0.7539062,0.0723 -0.2273763,0.0345 -0.3845758,0.0527 -0.4707032,0.0527 -0.2273762,0 -0.3951551,-0.0289 -0.5019531,-0.084 -0.1033528,-0.0551 -0.2235243,-0.18104 -0.3613281,-0.38086 0.4995388,-0.0827 0.8331435,-0.21056 1.0019531,-0.38281 v -1.45703 c 0.5270996,-0.36863 0.7910157,-0.84022 0.7910157,-1.41211 0,-0.23427 -0.053358,-0.45874 -0.1601563,-0.67578 -0.106798,-0.22049 -0.2481283,-0.4123 -0.4238281,-0.57422 -0.1756999,-0.16537 -0.7573514,-0.66675 -1.7460938,-1.50391 0.3272841,-0.14125 0.4902344,-0.38642 0.4902344,-0.73437 0,-0.2136 -0.074978,-0.39529 -0.2265625,-0.54688 -0.1481391,-0.15158 -0.3317871,-0.22656 -0.5488281,-0.22656 z m -0.00391,0.3457 c 0.1205784,0 0.2244195,0.0428 0.3105469,0.12891 0.086127,0.0827 0.1289062,0.18411 0.1289062,0.30469 0,0.11713 -0.042779,0.21856 -0.1289062,0.30469 -0.086127,0.0861 -0.1899685,0.1289 -0.3105469,0.1289 -0.1171332,0 -0.2185601,-0.0428 -0.3046875,-0.1289 -0.086127,-0.0861 -0.1289062,-0.18756 -0.1289062,-0.30469 0,-0.12058 0.042779,-0.22201 0.1289062,-0.30469 0.086127,-0.0861 0.1875543,-0.12891 0.3046875,-0.12891 z m -0.1601562,2.64453 h 0.3242187 v 0.6875 h 0.6835938 v 0.32032 H 4.3691406 v 0.69336 H 4.0449219 v -0.69336 h -0.6875 v -0.32032 h 0.6875 z m 0.1640625,2.23829 c 0.3720703,0 0.875868,0.0827 1.5097656,0.24804 l -0.00977,0.32032 c -0.4926487,-0.16881 -0.9940322,-0.25196 -1.5039063,-0.25196 -0.506429,0 -1.0053982,0.0831 -1.4980469,0.25196 l -0.011719,-0.32032 c 0.6304525,-0.16536 1.1347114,-0.24804 1.5136719,-0.24804 z m 0,0.54882 0.4609375,0.29883 -0.4609375,0.30078 L 3.75,136.60156 Z m -1.5019532,0.25196 0.2773438,0.18164 -0.2773438,0.31055 z m 3.0019532,0 v 0.49219 l -0.2734375,-0.31055 z m -1.5,0.60937 c 0.6614583,0 1.1623806,0.0611 1.5,0.18164 v 0.31055 c -0.3341743,-0.11713 -0.8350966,-0.17578 -1.5,-0.17578 -0.6649034,0 -1.1643338,0.0587 -1.5019532,0.17578 v -0.31055 c 0.3410645,-0.12058 0.8404949,-0.18164 1.5019532,-0.18164 z"
            transform="matrix(3.6774061,0,0,3.6774061,57.727006,-406.3701)"
            inkscape:label="B"/>
        <path
            transform="matrix(1.0000318,0,0,1.0000318,50.735029,23.837717)"
            sodipodi:type="inkscape:offset"
            inkscape:radius="0"
            inkscape:original="M 18.421875 4.9550781 L 18.421875 12.662109 L 20.695312 12.662109 C 20.628936 12.88487 18.266452 14.21473 17.955078 15.445312 C 16.068322 13.392885 13.075509 12.733786 10.394531 13.140625 C 7.3041595 13.497058 4.6954859 16.381684 4.9980469 19.544922 C 5.0560849 23.273481 7.9866138 26.146673 11.103516 27.765625 L 11.103516 35.251953 C 10.836002 36.745934 12.246602 37.746105 13.492188 38.185547 C 18.65278 40.112673 24.445261 40.199074 29.740234 38.761719 C 31.258787 38.252744 33.327464 37.788409 33.822266 36.048828 C 33.855406 33.289066 33.828491 30.526208 33.837891 27.765625 C 36.578601 26.300014 39.203559 23.996581 39.798828 20.804688 C 40.445706 18.132463 39.261033 15.095359 36.738281 13.859375 C 33.615612 12.358592 29.404684 12.84893 26.986328 15.445312 C 26.303327 14.229012 25.26755 13.170866 23.949219 12.662109 L 26.517578 12.662109 L 26.517578 4.9550781 L 18.421875 4.9550781 z M 20.601562 6.1425781 L 24.337891 6.1425781 C 23.715047 6.7589319 23.093547 7.3738806 22.470703 7.9902344 L 20.601562 6.1425781 z M 19.628906 6.8027344 L 21.613281 8.828125 L 19.628906 10.851562 L 19.628906 6.8027344 z M 25.3125 6.8027344 L 25.3125 10.851562 L 23.326172 8.828125 L 25.3125 6.8027344 z M 22.470703 9.6640625 L 24.337891 11.513672 L 20.601562 11.513672 L 22.470703 9.6640625 z M 22.685547 13.443359 C 24.156841 13.587878 25.500999 14.944599 26.050781 16.283203 C 24.30969 18.208128 23.189644 20.676127 22.470703 23.152344 C 21.954873 21.180319 21.020433 19.342427 19.9375 17.625 C 18.087388 16.325231 19.697094 14.543727 21.197266 13.748047 C 21.69129 13.481514 22.195116 13.395186 22.685547 13.443359 z M 33.410156 14.244141 C 35.928964 14.188096 38.59691 15.996966 38.716797 18.666016 C 39.046085 22.409471 36.027137 25.48602 32.863281 26.96875 C 30.1412 25.017997 26.721538 24.404743 23.443359 24.244141 C 23.98928 22.335231 24.69489 20.453846 25.736328 18.755859 C 27.272034 16.046915 30.211498 14.018567 33.410156 14.244141 z M 12.798828 14.287109 C 13.567965 14.37869 14.317893 14.574929 15 14.863281 C 18.701998 16.517498 20.433462 20.583642 21.496094 24.244141 C 18.819113 24.372035 16.094069 24.797922 13.671875 26 C 12.11994 27.655525 10.458468 26.168326 9.0859375 24.998047 C 6.7741295 23.083623 5.2344916 19.585343 6.7753906 16.75 C 8.0224974 14.693408 10.491418 14.012368 12.798828 14.287109 z M 23.345703 25.410156 C 25.649142 25.486894 27.935836 25.901328 30.095703 26.699219 C 31.040614 27.222473 32.819526 27.724041 32.669922 29.070312 L 31.072266 30.0625 C 31.442891 30.631991 31.814926 31.201993 32.185547 31.771484 C 32.622373 32.249164 32.757942 32.815796 32.669922 33.449219 C 27.908783 30.912061 22.128666 30.683939 16.923828 31.726562 C 15.388903 31.832081 13.263393 33.235208 12.271484 33.205078 C 12.092474 32.373858 12.809927 31.808576 13.167969 31.136719 C 13.330153 30.6751 14.301942 30.033555 13.443359 29.798828 C 13.053069 29.413589 12.111597 29.335483 12.271484 28.644531 C 13.001269 27.151797 14.998769 26.641497 16.5 26.146484 C 18.722835 25.594308 21.042265 25.333419 23.345703 25.410156 z M 22.470703 26.462891 L 19.861328 28.097656 L 22.470703 29.945312 C 23.340085 29.328959 24.208743 28.71401 25.078125 28.097656 L 22.470703 26.462891 z M 21.521484 32.34375 C 25.082151 32.189184 28.693866 32.769661 31.861328 34.412109 C 33.996313 35.802719 30.878274 37.216483 29.539062 37.451172 C 25.103313 38.833205 20.290357 38.897162 15.832031 37.576172 C 14.719829 37.148726 11.694528 36.636624 12.472656 34.925781 C 13.972708 33.572422 16.083598 33.186841 17.996094 32.730469 C 19.153408 32.527259 20.334596 32.395272 21.521484 32.34375 z "
            xlink:href="#text36"
            style="font-style:normal;font-variant:normal;font-weight:normal;font-stretch:normal;font-size:10.58333302px;line-height:1.25;font-family:'Scid Chess Standard';-inkscape-font-specification:'Scid Chess Standard';letter-spacing:0px;word-spacing:0px;fill:#000000;fill-opacity:1;stroke:none;stroke-width:0.99654686"
            id="path3746"
            inkscape:href="#text36"
            d="m 18.421875,4.9550781 v 7.7070309 h 2.273437 c -0.06638,0.222761 -2.42886,1.552621 -2.740234,2.783203 -1.886756,-2.052427 -4.879569,-2.711526 -7.560547,-2.304687 -3.0903715,0.356433 -5.6990451,3.241059 -5.3964841,6.404297 0.058038,3.728559 2.9885669,6.601751 6.1054691,8.220703 v 7.486328 c -0.267514,1.493981 1.143086,2.494152 2.388672,2.933594 5.160592,1.927126 10.953073,2.013527 16.248046,0.576172 1.518553,-0.508975 3.58723,-0.97331 4.082032,-2.712891 0.03314,-2.759762 0.0062,-5.52262 0.01563,-8.283203 2.74071,-1.465611 5.365668,-3.769044 5.960937,-6.960937 0.646878,-2.672225 -0.537795,-5.709329 -3.060547,-6.945313 -3.122669,-1.500783 -7.333597,-1.010445 -9.751953,1.585937 -0.683001,-1.2163 -1.718778,-2.274446 -3.037109,-2.783203 h 2.568359 V 4.9550781 Z m 2.179687,1.1875 h 3.736329 c -0.622844,0.6163538 -1.244344,1.2313025 -1.867188,1.8476563 z m -0.972656,0.6601563 1.984375,2.0253906 -1.984375,2.023437 z m 5.683594,0 V 10.851562 L 23.326172,8.828125 Z m -2.841797,2.8613281 1.867188,1.8496095 h -3.736329 z m 0.214844,3.7792965 c 1.471294,0.144519 2.815452,1.50124 3.365234,2.839844 -1.741091,1.924925 -2.861137,4.392924 -3.580078,6.869141 -0.51583,-1.972025 -1.45027,-3.809917 -2.533203,-5.527344 -1.850112,-1.299769 -0.240406,-3.081273 1.259766,-3.876953 0.494024,-0.266533 0.99785,-0.352861 1.488281,-0.304688 z m 10.724609,0.800782 c 2.518808,-0.05605 5.186754,1.752825 5.306641,4.421875 0.329288,3.743455 -2.68966,6.820004 -5.853516,8.302734 -2.722081,-1.950753 -6.141743,-2.564007 -9.419922,-2.724609 0.545921,-1.90891 1.251531,-3.790295 2.292969,-5.488282 1.535706,-2.708944 4.47517,-4.737292 7.673828,-4.511718 z m -20.611328,0.04297 c 0.769137,0.09158 1.519065,0.28782 2.201172,0.576172 3.701998,1.654217 5.433462,5.720361 6.496094,9.38086 C 18.819113,24.372035 16.094069,24.797922 13.671875,26 12.11994,27.655525 10.458468,26.168326 9.0859375,24.998047 6.7741295,23.083623 5.2344916,19.585343 6.7753906,16.75 8.0224974,14.693408 10.491418,14.012368 12.798828,14.287109 Z m 10.546875,11.123047 c 2.303439,0.07674 4.590133,0.491172 6.75,1.289063 0.944911,0.523254 2.723823,1.024822 2.574219,2.371093 L 31.072266,30.0625 c 0.370625,0.569491 0.74266,1.139493 1.113281,1.708984 0.436826,0.47768 0.572395,1.044312 0.484375,1.677735 -4.761139,-2.537158 -10.541256,-2.76528 -15.746094,-1.722657 -1.534925,0.105519 -3.660435,1.508646 -4.652344,1.478516 -0.17901,-0.83122 0.538443,-1.396502 0.896485,-2.068359 0.162184,-0.461619 1.133973,-1.103164 0.27539,-1.337891 -0.39029,-0.385239 -1.331762,-0.463345 -1.171875,-1.154297 0.729785,-1.492734 2.727285,-2.003034 4.228516,-2.498047 2.222835,-0.552176 4.542265,-0.813065 6.845703,-0.736328 z m -0.875,1.052735 -2.609375,1.634765 2.609375,1.847656 c 0.869382,-0.616353 1.73804,-1.231302 2.607422,-1.847656 z m -0.949219,5.880859 c 3.560667,-0.154566 7.172382,0.425911 10.339844,2.068359 2.134985,1.39061 -0.983054,2.804374 -2.322266,3.039063 -4.435749,1.382033 -9.248705,1.44599 -13.707031,0.125 -1.112202,-0.427446 -4.137503,-0.939548 -3.359375,-2.650391 1.500052,-1.353359 3.610942,-1.73894 5.523438,-2.195312 1.157314,-0.20321 2.338502,-0.335197 3.52539,-0.386719 z"
            inkscape:label="k"/>
        <path
            inkscape:href="#text41"
            sodipodi:type="inkscape:offset"
            inkscape:radius="0"
            inkscape:original="M 61.320312 10.236328 L 61.320312 12.205078 L 62.28125 12.855469 L 62.28125 15.115234 L 61.427734 16.070312 L 61.427734 16.576172 L 60.714844 17.351562 L 60.714844 18.648438 L 67.785156 18.648438 L 67.785156 17.351562 L 67.076172 16.576172 L 67.076172 16.070312 L 66.224609 15.115234 L 66.224609 12.855469 L 67.185547 12.205078 L 67.185547 10.236328 L 65.830078 10.236328 L 65.830078 11.146484 L 64.880859 11.146484 L 64.880859 10.236328 L 63.625 10.236328 L 63.625 11.146484 L 62.673828 11.146484 L 62.673828 10.236328 L 61.320312 10.236328 z M 61.613281 11.439453 L 66.890625 11.439453 L 66.890625 11.998047 L 61.613281 11.998047 L 61.613281 11.439453 z M 62.369141 15.445312 L 66.136719 15.445312 L 66.673828 16.050781 L 61.832031 16.050781 L 62.369141 15.445312 z M 61.712891 16.675781 L 66.792969 16.675781 L 67.449219 17.388672 L 61.056641 17.388672 L 61.712891 16.675781 z "
            xlink:href="#text41"
            style="font-style:normal;font-variant:normal;font-weight:normal;font-stretch:normal;font-size:10.58333302px;line-height:1.25;font-family:'Scid Chess Standard';-inkscape-font-specification:'Scid Chess Standard';letter-spacing:0px;word-spacing:0px;fill:#000000;fill-opacity:1;stroke:none;stroke-width:0.26458332"
            id="path3748"
            d="m 61.320312,10.236328 v 1.96875 l 0.960938,0.650391 v 2.259765 l -0.853516,0.955078 v 0.50586 l -0.71289,0.77539 v 1.296876 h 7.070312 v -1.296876 l -0.708984,-0.77539 v -0.50586 l -0.851563,-0.955078 v -2.259765 l 0.960938,-0.650391 v -1.96875 h -1.355469 v 0.910156 H 64.880859 V 10.236328 H 63.625 v 0.910156 h -0.951172 v -0.910156 z m 0.292969,1.203125 h 5.277344 v 0.558594 h -5.277344 z m 0.75586,4.005859 h 3.767578 l 0.537109,0.605469 h -4.841797 z m -0.65625,1.230469 h 5.080078 l 0.65625,0.712891 h -6.392578 z"
            transform="matrix(4.1606684,0,0,4.1606684,-149.6071,-13.899655)"
            inkscape:label="R"/>
    </g>
</svg>
